<mxfile host="app.diagrams.net" agent="Mozilla/5.0 (Windows NT 10.0; Win64; x64) AppleWebKit/537.36 (KHTML, like Gecko) Chrome/132.0.0.0 Safari/537.36" version="26.0.14">
  <diagram name="PÃ¡gina-1" id="DJ_uZM9-sGWWiu1bk2n6">
    <mxGraphModel dx="637" dy="319" grid="1" gridSize="10" guides="1" tooltips="1" connect="1" arrows="1" fold="1" page="1" pageScale="1" pageWidth="850" pageHeight="1100" math="0" shadow="0">
      <root>
        <mxCell id="0" />
        <mxCell id="1" parent="0" />
        <mxCell id="AcueBCYtLK51RRzxdlnt-3" value="" style="edgeStyle=orthogonalEdgeStyle;rounded=0;orthogonalLoop=1;jettySize=auto;html=1;" edge="1" parent="1" source="AcueBCYtLK51RRzxdlnt-1" target="AcueBCYtLK51RRzxdlnt-2">
          <mxGeometry relative="1" as="geometry" />
        </mxCell>
        <mxCell id="AcueBCYtLK51RRzxdlnt-1" value="Inicio" style="ellipse;whiteSpace=wrap;html=1;" vertex="1" parent="1">
          <mxGeometry x="368" y="10" width="115" height="70" as="geometry" />
        </mxCell>
        <mxCell id="AcueBCYtLK51RRzxdlnt-5" value="" style="edgeStyle=orthogonalEdgeStyle;rounded=0;orthogonalLoop=1;jettySize=auto;html=1;" edge="1" parent="1" source="AcueBCYtLK51RRzxdlnt-2" target="AcueBCYtLK51RRzxdlnt-4">
          <mxGeometry relative="1" as="geometry" />
        </mxCell>
        <mxCell id="AcueBCYtLK51RRzxdlnt-2" value="Ingresar precio base" style="whiteSpace=wrap;html=1;" vertex="1" parent="1">
          <mxGeometry x="365" y="120" width="120" height="60" as="geometry" />
        </mxCell>
        <mxCell id="AcueBCYtLK51RRzxdlnt-7" value="" style="edgeStyle=orthogonalEdgeStyle;rounded=0;orthogonalLoop=1;jettySize=auto;html=1;" edge="1" parent="1" source="AcueBCYtLK51RRzxdlnt-4" target="AcueBCYtLK51RRzxdlnt-6">
          <mxGeometry relative="1" as="geometry" />
        </mxCell>
        <mxCell id="AcueBCYtLK51RRzxdlnt-9" value="" style="edgeStyle=orthogonalEdgeStyle;rounded=0;orthogonalLoop=1;jettySize=auto;html=1;" edge="1" parent="1" source="AcueBCYtLK51RRzxdlnt-4" target="AcueBCYtLK51RRzxdlnt-8">
          <mxGeometry relative="1" as="geometry" />
        </mxCell>
        <mxCell id="AcueBCYtLK51RRzxdlnt-4" value="precio base &amp;gt; $500?" style="rhombus;whiteSpace=wrap;html=1;" vertex="1" parent="1">
          <mxGeometry x="373" y="220" width="105" height="100" as="geometry" />
        </mxCell>
        <mxCell id="AcueBCYtLK51RRzxdlnt-6" value="Calcular IVA = precio * 0.16" style="whiteSpace=wrap;html=1;" vertex="1" parent="1">
          <mxGeometry x="150" y="380" width="120" height="60" as="geometry" />
        </mxCell>
        <mxCell id="AcueBCYtLK51RRzxdlnt-8" value="Calcular IVA = precio * 0.08" style="whiteSpace=wrap;html=1;" vertex="1" parent="1">
          <mxGeometry x="560" y="380" width="120" height="60" as="geometry" />
        </mxCell>
        <mxCell id="AcueBCYtLK51RRzxdlnt-10" value="Calcular precio final = precio base + IVA" style="rounded=0;whiteSpace=wrap;html=1;" vertex="1" parent="1">
          <mxGeometry x="365" y="460" width="120" height="60" as="geometry" />
        </mxCell>
        <mxCell id="AcueBCYtLK51RRzxdlnt-11" value="" style="endArrow=classic;html=1;rounded=0;exitX=0.5;exitY=1;exitDx=0;exitDy=0;" edge="1" parent="1" source="AcueBCYtLK51RRzxdlnt-6">
          <mxGeometry width="50" height="50" relative="1" as="geometry">
            <mxPoint x="315" y="540" as="sourcePoint" />
            <mxPoint x="365" y="490" as="targetPoint" />
            <Array as="points">
              <mxPoint x="210" y="490" />
            </Array>
          </mxGeometry>
        </mxCell>
        <mxCell id="AcueBCYtLK51RRzxdlnt-12" value="" style="endArrow=classic;html=1;rounded=0;exitX=0.5;exitY=1;exitDx=0;exitDy=0;entryX=1;entryY=0.5;entryDx=0;entryDy=0;" edge="1" parent="1" source="AcueBCYtLK51RRzxdlnt-8" target="AcueBCYtLK51RRzxdlnt-10">
          <mxGeometry width="50" height="50" relative="1" as="geometry">
            <mxPoint x="560" y="520" as="sourcePoint" />
            <mxPoint x="490" y="490" as="targetPoint" />
            <Array as="points">
              <mxPoint x="620" y="490" />
            </Array>
          </mxGeometry>
        </mxCell>
        <mxCell id="AcueBCYtLK51RRzxdlnt-13" value="" style="endArrow=classic;html=1;rounded=0;" edge="1" parent="1" target="AcueBCYtLK51RRzxdlnt-14">
          <mxGeometry width="50" height="50" relative="1" as="geometry">
            <mxPoint x="424" y="520" as="sourcePoint" />
            <mxPoint x="424" y="580" as="targetPoint" />
          </mxGeometry>
        </mxCell>
        <mxCell id="AcueBCYtLK51RRzxdlnt-16" value="" style="edgeStyle=orthogonalEdgeStyle;rounded=0;orthogonalLoop=1;jettySize=auto;html=1;" edge="1" parent="1" source="AcueBCYtLK51RRzxdlnt-14" target="AcueBCYtLK51RRzxdlnt-15">
          <mxGeometry relative="1" as="geometry" />
        </mxCell>
        <mxCell id="AcueBCYtLK51RRzxdlnt-14" value="Mostrar precio final y IVA" style="rounded=0;whiteSpace=wrap;html=1;" vertex="1" parent="1">
          <mxGeometry x="365" y="560" width="120" height="60" as="geometry" />
        </mxCell>
        <mxCell id="AcueBCYtLK51RRzxdlnt-15" value="Fin" style="ellipse;whiteSpace=wrap;html=1;rounded=0;" vertex="1" parent="1">
          <mxGeometry x="363" y="670" width="125" height="80" as="geometry" />
        </mxCell>
        <mxCell id="AcueBCYtLK51RRzxdlnt-17" value="Si" style="text;html=1;align=center;verticalAlign=middle;whiteSpace=wrap;rounded=0;" vertex="1" parent="1">
          <mxGeometry x="270" y="250" width="60" height="30" as="geometry" />
        </mxCell>
        <mxCell id="AcueBCYtLK51RRzxdlnt-18" value="No" style="text;html=1;align=center;verticalAlign=middle;whiteSpace=wrap;rounded=0;" vertex="1" parent="1">
          <mxGeometry x="510" y="250" width="60" height="30" as="geometry" />
        </mxCell>
      </root>
    </mxGraphModel>
  </diagram>
</mxfile>
